<svg width="772" height="496" viewBox="0 0 772 496" fill="none" xmlns="http://www.w3.org/2000/svg">
<g clip-path="url(#clip0_234_20227)">
<path d="M625.622 494.013C625.622 494.013 702.024 492.209 734.671 445.876C793.813 361.966 767.161 288.381 661.867 293.856C544.075 299.984 558.602 39.8683 354.642 165.105C310.354 192.3 211.784 135.189 172.405 254.174C163.039 282.47 92.7145 284.43 47.2635 307.13C-24.0285 342.723 -3.90758 494.596 63.4559 495.197C130.819 495.798 625.622 494.013 625.622 494.013Z" fill="#EDF1F2"/>
<path d="M267.518 104.241H263.872V70.816L262.724 70.7137V57.4273L263.054 56.3299L103.145 8.14209L36.3885 53.1939L37.0287 54.147C35.9857 54.1502 34.9863 54.5663 34.249 55.3043C33.5117 56.0424 33.0965 57.0424 33.0941 58.0858V81.0536C33.0973 82.0968 33.5127 83.0963 34.2499 83.8342C34.987 84.5721 35.9859 84.9884 37.0287 84.9924H70.4895C71.5329 84.9892 72.5326 84.5732 73.2703 83.8352C74.0081 83.0973 74.424 82.0973 74.4272 81.0536V71.8593H96.7334V494.494H122.974V71.8593H230.925L261.02 104.241H254.846C253.802 104.244 252.803 104.66 252.066 105.398C251.329 106.136 250.913 107.136 250.911 108.18V112.115C250.913 113.159 251.327 114.16 252.065 114.899C252.802 115.638 253.802 116.054 254.846 116.057H267.518C268.561 116.054 269.561 115.638 270.299 114.9C271.037 114.162 271.453 113.162 271.456 112.118V108.18C271.453 107.136 271.037 106.136 270.299 105.398C269.561 104.66 268.561 104.244 267.518 104.241ZM103.524 10.6557L258.744 57.4273H74.367C74.21 56.5115 73.735 55.6805 73.0258 55.0805C72.3165 54.4805 71.4184 54.1499 70.4895 54.147H39.0757L103.524 10.6557ZM249.691 71.8593L261.576 72.9116V101.475L234.06 71.8593H249.691Z" fill="#DCE2E5"/>
<path d="M207.462 494.424H92.0052C97.566 490.32 117.522 476.006 135.59 468.266C143.08 465.064 150.246 462.993 155.93 463.248C173.965 464.066 199.235 486.622 207.462 494.424Z" fill="#FB8B0D"/>
<path d="M170.761 494.424H55.3071C63.1704 488.619 99.8354 462.388 119.238 463.257C124.3 463.486 129.933 465.428 135.599 468.276C150.111 475.57 164.842 488.811 170.761 494.424Z" fill="#FCA23D"/>
<path d="M729.341 128.385L729.78 127.732L683.99 96.8296L574.298 129.888L574.527 130.643V139.75L573.739 139.819V162.748H571.229C570.512 162.748 569.824 163.033 569.316 163.54C568.809 164.048 568.524 164.736 568.524 165.454V168.16C568.524 168.877 568.809 169.566 569.316 170.073C569.824 170.581 570.512 170.866 571.229 170.866H579.931C580.648 170.866 581.337 170.581 581.844 170.073C582.351 169.566 582.636 168.877 582.636 168.16V165.454C582.636 164.736 582.351 164.048 581.844 163.54C581.337 163.033 580.648 162.748 579.931 162.748H575.696L596.355 140.54H670.4V430.44H688.402V140.54H703.705V146.854C703.705 147.572 703.99 148.26 704.497 148.768C705.004 149.275 705.692 149.56 706.41 149.56H729.362C730.08 149.56 730.768 149.275 731.275 148.768C731.783 148.26 732.068 147.572 732.068 146.854V131.091C732.068 130.733 731.997 130.38 731.86 130.05C731.722 129.72 731.521 129.421 731.268 129.17C731.014 128.918 730.714 128.719 730.383 128.584C730.052 128.45 729.698 128.382 729.341 128.385ZM683.731 98.5524L727.917 128.385H706.374C705.736 128.386 705.12 128.613 704.633 129.025C704.146 129.437 703.821 130.008 703.714 130.636H577.256L683.731 98.5524ZM575.314 160.856V141.259L583.466 140.54H594.188L575.314 160.856Z" fill="#EDF1F2"/>
<path d="M512.198 23.4851H360.753V494.882H512.198V23.4851Z" fill="#DCE2E5"/>
<path opacity="0.5" d="M470.369 88.5312H360.753V157.591H470.369V88.5312Z" fill="#C0CBD1"/>
<path opacity="0.5" d="M470.369 214.988H360.753V284.048H470.369V214.988Z" fill="#C0CBD1"/>
<path opacity="0.5" d="M470.369 339.816H360.753V408.876H470.369V339.816Z" fill="#C0CBD1"/>
<path d="M700.991 408.431H680.554V344.573H512.198V23.4851H470.369V495.149H512.198V494.885H680.554H700.991V408.431Z" fill="#C0CBD1"/>
<path d="M771.243 496H0.757467C0.556574 496 0.363909 495.92 0.221857 495.778C0.0798043 495.636 0 495.443 0 495.242H0C0.000791524 495.042 0.08085 494.849 0.222731 494.707C0.364613 494.565 0.556818 494.485 0.757467 494.485H771.243C771.443 494.485 771.635 494.565 771.777 494.707C771.919 494.849 771.999 495.042 772 495.242C772 495.443 771.92 495.636 771.778 495.778C771.636 495.92 771.443 496 771.243 496Z" fill="#023047"/>
<path d="M543.503 494.497C543.503 494.497 543.804 487.972 545.553 484.472C547.303 480.973 561.298 483.378 561.298 483.378C561.298 483.378 564.523 489.217 564.087 494.467L543.503 494.497Z" fill="#07344B"/>
<path d="M505.943 494.497C505.943 494.497 506.243 487.972 507.993 484.472C509.742 480.973 523.737 483.378 523.737 483.378C523.737 483.378 526.962 489.217 526.527 494.467L505.943 494.497Z" fill="#07344B"/>
<path d="M552.572 217.58C550.823 218.849 535 227.108 535 227.108L518.312 215.208C518.312 215.208 523.38 214.471 523.515 214.432C525.018 214.011 524.952 209.97 525.141 205.671C525.171 205.006 525.207 204.339 525.255 203.674L541.595 203.073V203.274C541.595 203.482 541.625 203.698 541.64 203.924L541.673 204.39C541.673 204.552 541.697 204.712 541.709 204.88C542.01 208.659 542.635 213.999 543.84 214.622C544.541 214.976 549.194 214.928 552.572 217.58Z" fill="#FC9A2B"/>
<path d="M541.724 204.889C540.374 207.595 537.375 212.282 532.923 212.126C528.673 211.976 526.25 208.112 525.141 205.671C525.171 205.006 525.207 204.339 525.255 203.674L541.595 203.073V203.274L541.64 203.924L541.673 204.39C541.697 204.561 541.712 204.721 541.724 204.889Z" fill="#FB8500"/>
<path d="M523.313 167.237C523.313 167.237 531.195 159.386 540.492 167.393C540.492 167.393 534.964 166.247 523.313 167.237Z" fill="#1B4559"/>
<path d="M520.389 196.112C518.717 192.504 517.366 188.755 516.352 184.91C515.252 180.613 516.259 164.302 532.653 165.411C535.952 165.62 539.163 166.566 542.049 168.181C545.749 170.285 551.216 175.051 546.591 189.564L545.472 194.435L520.389 196.112Z" fill="#8ECAE6"/>
<path d="M543.32 202.95C539.088 206.997 533.831 212.391 522.499 202.417C520.284 200.466 520.434 197.465 520.305 193.157C520.148 188.046 518.922 184.934 519.49 181.993C520.166 178.475 523.175 176.882 529.409 176.344C540.867 175.348 546.66 177.931 545.89 183.62C544.18 196.335 547.625 198.846 543.32 202.95Z" fill="#FC9A2B"/>
<path d="M533.984 176.148C533.984 176.148 540.774 176.004 542.325 178.277C543.876 180.55 544.093 183.088 544.874 184.369C545.347 185.189 545.573 186.129 545.526 187.075L547.029 176.933L537.835 175.105L533.984 176.148Z" fill="#8ECAE6"/>
<path d="M573.601 232.087C573.601 232.087 570.7 240.638 558.938 242.205C558.62 242.247 558.292 242.283 557.961 242.316H510.07L509.811 242.238C507.954 241.636 496.51 237.728 495.308 230.392C495.308 230.392 501.32 218.034 505.916 216.501C507.594 216.002 509.315 215.654 511.056 215.463C513.048 215.208 515.144 215.037 516.902 214.925C519.307 214.775 521.11 214.736 521.11 214.736C521.11 214.736 524.84 222.301 533.915 222.186C542.989 222.072 545.097 214.847 545.097 214.847C545.097 214.847 547.645 214.919 551.03 215.286C552.897 215.488 555.016 215.776 557.105 216.188C560.646 216.892 564.093 217.956 566.062 219.556C571.304 223.828 573.601 232.087 573.601 232.087Z" fill="#87CBDB"/>
<path d="M562.206 298.222C561.698 295.389 560.937 291.078 560.345 287.287C560.345 287.235 562.119 265.879 562.774 262.274C563.429 258.669 558.971 239.03 558.971 239.03C557.934 236.023 556.176 235.121 554.829 235.121L557.096 216.212C554.992 215.794 552.888 215.505 551.021 215.31L549.936 235.127L549.918 235.413C547.435 235.551 544.339 235.713 541.457 235.846C538.574 235.978 535.902 236.071 534.258 236.071C530.915 236.071 523.247 235.689 518.152 235.41L518.131 235.127L516.902 214.949C515.144 215.06 513.049 215.232 511.056 215.487L513.22 235.127C511.795 235.127 510.154 237.662 509.913 239.069L509.691 245.211C508.615 248.305 506.385 255.175 506.009 259.998C505.519 266.375 508.182 288.561 508.2 288.709C508.104 291.355 507.9 294.722 507.554 298.002C505.552 303.414 497.034 328.649 497.887 362.564C498.696 394.227 499.177 448.326 502.907 474.593C503.508 478.856 504.202 482.386 504.996 484.966C505.193 485.603 505.569 486.17 506.078 486.601C506.587 487.032 507.209 487.309 507.87 487.398C512.144 487.999 521.786 489.085 525.934 487.575C527.921 486.851 529.346 475.81 530.353 461.574C531.318 447.929 531.898 431.345 532.22 418.106C532.478 407.556 532.577 399.131 532.577 396.013C532.577 388.96 534.243 368.262 534.796 356.088C534.796 356.016 534.824 355.947 534.875 355.897C534.926 355.846 534.994 355.817 535.066 355.817C535.138 355.817 535.207 355.846 535.257 355.897C535.308 355.947 535.337 356.016 535.337 356.088C536.172 370.541 539.091 392.469 539.139 397.33C539.247 409.144 538.559 485.035 543.72 487.584C547.667 489.533 556.967 488.059 561.409 487.458C562.195 487.352 562.933 487.019 563.532 486.501C564.132 485.982 564.569 485.301 564.788 484.539C570.339 465.443 570.832 399.089 571.767 362.573C572.642 329.106 564.358 304.115 562.206 298.222Z" fill="#1B4559"/>
<path d="M518.708 311.878C517.07 313.192 511.711 312.642 509.637 310.895C507.563 309.148 503.403 309.692 502.423 309.034C502.354 308.989 483.011 286.06 480.916 276.414C478.812 266.679 492.188 239.886 495.975 232.583C498.78 238.509 508.122 241.708 509.802 242.238L510.058 242.316H510.575C507.425 250.84 497.998 266.186 494.367 271.968C493.923 272.676 493.663 273.484 493.61 274.318C493.558 275.153 493.715 275.987 494.067 276.745C498.732 286.751 503.295 295.191 505.29 301.036C505.687 301.685 506.541 302.84 507.572 302.69C508.994 302.47 513.584 301.487 515.883 304.875C518.182 308.264 520.35 310.567 518.708 311.878Z" fill="#FC9A2B"/>
<path d="M548.151 167.471C547.108 166.142 545.93 164.925 544.634 163.842C544.276 163.541 543.891 163.22 543.479 162.91C539.328 159.75 532.683 156.665 524.669 160.009C522.642 160.847 520.786 162.052 519.195 163.562C518.841 163.899 518.504 164.242 518.188 164.6C511.239 172.309 511.828 184.399 511.828 184.399L551.914 183.972C552.043 172.778 548.151 167.471 548.151 167.471Z" fill="#FFB703"/>
<path d="M540.654 184.092C540.54 182.405 539.773 168.571 544.634 163.839C544.416 163.638 544.188 163.448 543.951 163.271C538.769 168.71 538.436 182.333 538.457 184.113L525.643 184.251C525.264 174.431 519.845 164.654 519.195 163.562C518.935 163.801 518.689 164.054 518.456 164.32C519.397 165.977 522.935 175.445 523.265 184.275L511.822 184.399C511.822 184.399 522.499 187.159 530.539 187.059C538.58 186.96 551.908 183.972 551.908 183.972L540.654 184.092Z" fill="#FB8B0D"/>
<path d="M520.226 237.175C516.123 245.049 504.479 246.525 504.479 246.525C508.251 237.337 500.652 234.442 495.951 225.034C491.25 215.626 499.558 209.399 499.558 209.399C494.418 210.385 493.435 217.273 493.435 217.273C493 212.682 496.826 204.919 508.964 203.386C517.852 202.264 519.995 199.267 520.506 197.742C520.707 199.721 521.185 201.269 522.514 202.436C523.452 203.265 524.353 203.981 525.219 204.609C525.201 204.967 525.183 205.325 525.168 205.68C525.114 206.882 525.081 208.085 525.027 209.174C524.425 209.877 523.997 210.711 523.776 211.61C523.555 212.508 523.546 213.446 523.752 214.348C523.842 214.792 523.983 215.224 524.173 215.635C525.327 217.166 526.053 218.977 526.277 220.881C526.833 226.077 523.313 231.269 520.226 237.175Z" fill="#8ECAE6"/>
<path d="M562.116 297.708L560.342 287.29C552.647 290.151 544.563 291.83 536.365 292.269C535.935 291.473 535.326 290.788 534.584 290.271C533.843 289.753 532.991 289.415 532.096 289.286L525.736 288.366C524.543 288.194 523.326 288.397 522.255 288.949C521.183 289.501 520.31 290.373 519.758 291.445C513.65 290.501 509.538 289.115 508.218 288.637V288.694L507.584 297.84V297.864C511.257 298.841 514.783 299.602 518.149 300.179L517.963 301.451C517.738 302.971 518.125 304.517 519.039 305.752C519.953 306.986 521.32 307.808 522.839 308.036L529.887 309.091C530.682 309.21 531.493 309.163 532.269 308.953C533.044 308.742 533.768 308.372 534.393 307.867C535.018 307.362 535.531 306.732 535.9 306.018C536.269 305.304 536.486 304.52 536.536 303.718L536.656 301.758C550.092 301.688 559.023 298.862 562.116 297.708Z" fill="#07344B"/>
<path d="M587.887 276.415C585.783 286.06 566.45 308.989 566.384 309.034C566.148 309.164 565.89 309.249 565.623 309.283H565.59C563.991 309.56 560.874 309.443 559.167 310.889C557.09 312.636 551.73 313.186 550.089 311.872C548.448 310.558 550.636 308.264 552.933 304.87C555.229 301.475 559.822 302.464 561.241 302.684C562.089 302.813 562.819 302.052 563.27 301.415C563.278 301.402 563.287 301.39 563.297 301.379C563.381 301.256 563.459 301.135 563.522 301.03C565.476 295.317 569.883 287.121 574.436 277.407C574.887 276.45 575.09 275.396 575.027 274.341C574.964 273.285 574.637 272.263 574.076 271.366C571.034 266.505 564.86 256.408 560.889 248.308C560.426 245.966 559.963 243.762 559.606 242.097C568.323 240.692 571.93 235.383 573.111 233.119C577.235 241.134 589.955 266.905 587.887 276.415Z" fill="#FC9A2B"/>
<path d="M718.809 318C715.884 318.676 702.665 318.839 693.38 316.752C691.611 316.381 689.882 315.841 688.216 315.14C686.466 314.368 685.147 313.436 684.476 312.314C683.424 310.567 681.507 304.581 679.249 296.731C673.033 275.11 664.286 239.385 664.286 239.385C664.286 239.385 681.852 242.971 685.571 246.032C689.289 249.093 692.571 297.657 696.067 298.971C696.581 299.163 697.471 299.572 698.61 300.131C698.667 300.158 698.721 300.188 698.778 300.212C699.457 300.549 700.221 300.937 701.048 301.361C708.301 305.089 720.303 311.806 721.547 313.3C723.182 315.267 723.074 317.017 718.809 318Z" fill="#8097A3"/>
<path d="M685.105 267.034C685.102 266.201 685.025 265.37 684.873 264.55C682.613 252.118 664.638 239.385 664.283 239.385V239.631C664.283 241.531 661.278 245.043 656.676 245.344C651.205 245.702 644.451 242.581 644.451 239.427C644.418 239.427 641.376 239.839 640.348 239.953C635.963 240.452 627.21 242.821 623.461 245.665C619.893 248.371 624.934 265.347 628.051 277.377C629.374 282.464 630.348 286.664 630.188 288.525C630.11 289.427 629.287 301.782 628.565 312.952C627.964 322.164 627.417 330.577 627.399 331.103C627.36 332.149 632.563 335.814 641.298 338.583C643.569 339.304 645.877 339.906 648.211 340.387C653.171 341.405 658.222 341.909 663.285 341.891C665.089 341.891 666.799 341.791 668.413 341.632C680.903 340.396 685.177 326.172 685.105 267.034Z" fill="#8097A3"/>
<path d="M644.448 239.288C644.343 234.46 644.421 228.696 645.073 223.825L664.343 226.973C664.343 226.973 664.361 232.857 664.277 239.384C664.277 239.384 664.803 245.44 657.346 246.324C649.888 247.208 644.253 243.964 644.448 239.288Z" fill="#FC9A2B"/>
<path d="M660.574 494.5C658.151 492.996 659.573 481.953 659.573 481.953C659.573 481.953 670.923 472.933 672.45 479.881C673.977 486.83 683.163 489.966 688.381 490.831C691.988 491.433 693.326 493.3 693.665 494.485L660.574 494.5Z" fill="#07344B"/>
<path d="M642.921 304.44C642.921 322.921 633.967 317.942 628.562 312.951C629.29 301.782 629.801 262.22 629.801 262.22C629.801 262.22 642.921 277.969 642.921 304.44Z" fill="#507080"/>
<path d="M701.045 301.361C700.687 303.955 696.593 311.502 693.38 316.752C691.611 316.381 689.882 315.841 688.216 315.14C686.466 314.368 685.147 313.435 684.476 312.314C683.424 310.567 681.507 304.581 679.249 296.73C680.918 287.073 682.508 277.533 682.508 277.533L682.998 271.135C682.998 271.628 690.488 299.737 693.879 300.393C695.923 300.789 697.374 300.308 698.607 300.131C698.664 300.158 698.718 300.188 698.775 300.212C699.455 300.549 700.218 300.937 701.045 301.361Z" fill="#507080"/>
<path d="M625.812 494.5C623.392 492.996 624.814 481.953 624.814 481.953C624.814 481.953 636.161 472.933 637.691 479.881C639.221 486.83 648.401 489.966 653.622 490.831C657.229 491.433 658.545 493.3 658.885 494.485L625.812 494.5Z" fill="#07344B"/>
<path d="M642.617 218.266C642.617 218.266 629.756 197.98 654.454 196.636C654.454 196.636 663.718 197.727 665.816 195.628C665.816 195.628 673 206.555 666.291 218.266C659.582 229.977 642.617 218.266 642.617 218.266Z" fill="#07344B"/>
<path d="M663.775 228.852C661.903 230.325 656.414 231.79 654.827 231.961C654.827 231.961 646.687 230.157 645.208 229.255C642.915 227.866 643.062 225.046 642.945 221.137C642.804 216.507 642.344 212.872 642.855 210.205C643.456 207.012 645.491 205.196 651.157 204.703C661.554 203.801 665.885 206.404 666.069 209.892C666.114 210.827 666.159 211.72 666.189 212.568C666.604 223.446 665.747 227.304 663.775 228.852Z" fill="#FC9A2B"/>
<path d="M666.282 216.134C666.183 222.448 664.479 226.164 663.252 226.636C661.694 227.218 660.084 227.648 658.443 227.923C657.857 227.992 657.295 227.974 657.301 227.641C657.322 226.648 658.648 225.422 657.662 224.544C656.628 223.621 651.073 223.308 650.625 225.322C650.409 226.306 652.2 228.028 650.971 228.08C650.598 228.013 650.234 227.944 649.886 227.851C648.375 227.433 646.933 226.797 645.605 225.963C643.315 224.574 643.465 222.445 642.957 218.563C642.63 216.056 642.63 217.415 642.957 221.14C643.3 225.049 642.63 227.538 645.221 229.258C646.66 230.211 654.959 233.943 654.959 233.943C654.839 231.967 661.918 230.334 663.788 228.858C665.516 227.487 666.39 224.324 666.282 216.134Z" fill="#07344B"/>
<path d="M627.399 331.103C627.36 332.149 632.56 335.814 641.298 338.583C642.001 338.81 642.728 339.026 643.477 339.233C643.482 339.233 643.487 339.236 643.49 339.24C643.493 339.244 643.495 339.249 643.495 339.254C644.31 348.818 646.516 362.33 648.506 375.367C649.023 378.746 649.522 382.096 649.979 385.334C651.181 393.903 652.101 401.714 652.2 407.334V407.394C652.242 409.973 650.069 416.414 649.904 417.893C649.804 418.795 649.72 419.763 649.663 420.77C649.449 425.391 649.51 430.021 649.846 434.634C651.271 456.802 657.127 485.167 659.219 486.373C663.37 488.778 670.941 486.373 674.771 485.807C676.361 485.573 677.632 484.217 677.551 482.611C675.675 445.822 681.065 394.585 685.093 363.088C685.199 362.27 685.299 361.468 685.393 360.682C685.874 356.969 686.193 353.499 686.394 350.372C686.578 347.63 686.665 345.141 686.695 342.982C686.695 342.308 686.713 341.665 686.716 341.058C686.716 339.085 685.156 326.178 685.084 267.04C685.082 266.381 684.82 265.75 684.355 265.284C683.89 264.818 683.259 264.556 682.601 264.553H646.465C645.636 264.554 644.815 264.72 644.051 265.04C643.286 265.361 642.593 265.83 642.01 266.42C641.428 267.01 640.969 267.71 640.659 268.479C640.348 269.248 640.194 270.071 640.204 270.9C640.261 275.41 640.099 281.724 639.119 287.738C637.784 295.949 634.926 303.619 629.028 305.477C629.004 305.537 628.842 305.895 628.583 306.493C628.529 307.978 628.467 309.491 628.397 311.03C628.397 311.331 628.37 311.65 628.355 311.962C628.355 312.146 628.337 312.326 628.328 312.509C628.328 312.81 628.298 313.138 628.283 313.454C628.259 313.971 628.232 314.494 628.205 315.02C628.18 315.435 628.156 315.847 628.135 316.265C628.09 317.065 628.042 317.876 627.991 318.691C627.976 318.956 627.961 319.214 627.94 319.479C627.871 320.537 627.799 321.611 627.718 322.69C627.694 323.021 627.67 323.351 627.642 323.688C627.642 323.848 627.618 324.007 627.606 324.169C627.573 324.593 627.54 325.017 627.504 325.441C627.468 325.865 627.429 326.343 627.39 326.8C627.228 328.457 627.441 329.939 627.399 331.103Z" fill="#1B4559"/>
<path d="M649.858 434.637C651.283 456.805 657.138 485.17 659.231 486.376C663.382 488.781 670.953 486.376 674.783 485.81C676.373 485.576 677.644 484.22 677.563 482.614C675.687 445.825 681.077 394.588 685.105 363.091C685.211 362.273 685.311 361.471 685.405 360.685C685.886 356.972 686.205 353.502 686.406 350.375C684.488 337.889 673.677 337.218 663.863 363.051C665.086 371.623 649.522 429.559 649.858 434.637Z" fill="#07344B"/>
<path d="M626.993 406.293C626.693 408.858 623.687 414.949 623.338 416.402C618.381 436.342 621.12 483.622 623.576 485.513C627.378 488.438 635.187 487.049 639.068 486.995C640.676 486.974 642.115 485.792 642.245 484.196C645.293 446.522 657.923 394.781 666.045 364.344C670.133 349.01 670.713 337.738 670.713 337.738C670.713 337.738 632.752 314.476 628.649 327.185C625.015 338.43 629.281 386.618 626.993 406.293Z" fill="#1B4559"/>
<path d="M665.654 190.965C665.393 190.665 665.116 190.385 664.821 190.108C663.512 188.859 661.984 187.862 660.313 187.168C653.7 184.405 648.205 186.954 644.773 189.573C644.436 189.829 644.117 190.087 643.823 190.34C642.751 191.238 641.777 192.245 640.916 193.346C640.916 193.346 637.7 197.733 637.808 206.979L670.899 207.318C670.899 207.318 671.392 197.333 665.654 190.965Z" fill="#FFB703"/>
<path d="M647.087 207.06L648.891 207.081C648.93 206.555 648.84 194.534 644.358 189.868C644.162 190.012 643.974 190.166 643.796 190.331C648.055 194.441 647.096 206.936 647.087 207.06Z" fill="#FB8B0D"/>
<path d="M661.476 207.219C661.855 199.859 664.671 192.126 665.432 190.752C665.245 190.525 665.044 190.31 664.83 190.108C664.304 191.01 659.985 199.023 659.528 207.198L637.805 206.964C637.805 206.964 648.812 209.435 655.455 209.516C662.098 209.598 670.917 207.319 670.917 207.319L661.476 207.219Z" fill="#FB8B0D"/>
<path d="M639.037 240.139C639.037 240.139 650.225 253.176 650.88 264.55L645.169 264.851C645.169 264.851 643.736 252.184 635.316 240.918C635.316 240.918 636.633 240.599 637.069 240.512C637.676 240.395 639.037 240.139 639.037 240.139Z" fill="#1B4559"/>
<path d="M666.938 239.959C674.951 252.091 675.811 264.797 675.811 264.797L681.564 264.698C681.089 255.756 675.474 245.921 672.375 241.246C672.375 241.261 668.392 240.253 666.938 239.959Z" fill="#1B4559"/>
<path d="M654.442 365.066H649.825C647.676 364.092 636.11 359.08 624.991 359.02C616.969 358.974 607.828 364.97 607.278 365.033C605.883 365.198 611.925 365.252 611.925 365.252C611.925 365.252 620.979 361.244 625.045 361.151C628.923 361.061 637.532 363.881 640.976 365.06H615.084C614.041 365.063 613.042 365.479 612.304 366.217C611.567 366.955 611.152 367.955 611.149 368.999V398.53C611.153 399.573 611.568 400.572 612.305 401.31C613.043 402.047 614.042 402.463 615.084 402.466H654.46C655.503 402.463 656.503 402.048 657.241 401.311C657.979 400.573 658.395 399.573 658.398 398.53V368.999C658.394 367.953 657.975 366.951 657.234 366.214C656.492 365.476 655.488 365.064 654.442 365.066Z" fill="#FFB703"/>
<path d="M641.65 365.066H602.288C600.114 365.066 598.351 366.829 598.351 369.005V398.533C598.351 400.708 600.114 402.472 602.288 402.472H641.65C643.824 402.472 645.587 400.708 645.587 398.533V369.005C645.587 366.829 643.824 365.066 641.65 365.066Z" fill="#FB8B0D"/>
<path d="M630.089 310.119C630.372 323.469 628.71 350.051 628.71 350.051H620.837C617.119 331.346 615.806 319.314 615.806 312.75C615.806 311.457 615.806 310.255 615.824 309.142C615.872 303.538 616.025 300.281 616.025 300.281C614.546 266.324 621.327 248.167 623.458 245.665C625.589 243.164 635.331 240.918 635.331 240.918C635.331 240.918 638.551 250.299 639.861 257.845C641.172 265.392 629.542 297.103 630.02 307.939C630.05 308.616 630.074 309.347 630.089 310.119Z" fill="#8097A3"/>
<path d="M732.272 319.205H725.906C725.601 319.207 725.309 319.329 725.093 319.546C724.878 319.762 724.757 320.055 724.757 320.36V493.784C724.758 494.089 724.879 494.381 725.095 494.596C725.31 494.812 725.601 494.934 725.906 494.936H732.272C732.577 494.935 732.869 494.813 733.084 494.597C733.299 494.381 733.42 494.089 733.42 493.784V320.36C733.42 320.055 733.299 319.762 733.084 319.546C732.869 319.329 732.577 319.207 732.272 319.205Z" fill="#FCAB4F"/>
<path d="M732.272 319.205H725.906C725.601 319.207 725.309 319.329 725.093 319.546C724.878 319.762 724.757 320.055 724.757 320.36V325.733H733.42V320.36C733.42 320.055 733.299 319.762 733.084 319.546C732.869 319.329 732.577 319.207 732.272 319.205Z" fill="#1B4559"/>
<path d="M724.757 493.784C724.758 494.089 724.879 494.381 725.095 494.597C725.31 494.812 725.601 494.934 725.906 494.936H732.272C732.577 494.935 732.869 494.813 733.084 494.597C733.299 494.382 733.42 494.089 733.42 493.784V489.148H724.757V493.784Z" fill="#1B4559"/>
<path d="M729.143 330.571C728.969 330.571 728.803 330.641 728.681 330.763C728.558 330.886 728.489 331.052 728.488 331.226V483.877C728.488 484.051 728.557 484.218 728.68 484.341C728.803 484.464 728.969 484.533 729.143 484.533C729.317 484.533 729.484 484.464 729.606 484.341C729.729 484.218 729.798 484.051 729.798 483.877V331.226C729.797 331.052 729.728 330.886 729.606 330.763C729.483 330.641 729.317 330.571 729.143 330.571Z" fill="#FB8B0D"/>
<path d="M628.71 350.051C628.71 350.051 630.372 323.469 630.089 310.119C623.795 308.09 618.718 308.535 615.824 309.142C615.824 310.254 615.806 311.457 615.806 312.75C615.806 319.314 617.119 331.346 620.837 350.051C619.196 356.939 619.304 364.377 622.148 365.685C624.991 366.993 634.394 362.077 634.285 359.888C634.177 357.7 628.71 350.051 628.71 350.051Z" fill="#FC9A2B"/>
<path d="M736.426 319.307C735.657 316.493 735.089 314.933 733.15 313.568C730.336 311.58 726.994 312.119 724.502 312.554C722.599 312.888 720.594 312.254 719.768 311.929C715.358 308.989 704.285 302.909 698.772 300.203C695.009 302.386 690.386 306.704 688.213 315.131C696.698 318.874 715.265 318.808 718.806 317.991C718.806 317.991 722.082 320.372 724.571 320.591C725.515 320.672 726.705 320.399 727.814 320.026C729.567 319.425 731.442 320.026 732.702 321.581C733.904 323.084 735.491 323.899 736.15 323.899C737.166 323.908 736.91 321.087 736.426 319.307Z" fill="#FC9A2B"/>
<path d="M68.0728 353.475H28.7116C26.5369 353.475 24.774 355.239 24.774 357.414V386.942C24.774 389.118 26.5369 390.881 28.7116 390.881H68.0728C70.2475 390.881 72.0105 389.118 72.0105 386.942V357.414C72.0105 355.239 70.2475 353.475 68.0728 353.475Z" fill="#FFB703"/>
<path d="M80.8686 353.475H41.5074C39.3327 353.475 37.5698 355.239 37.5698 357.414V386.942C37.5698 389.118 39.3327 390.881 41.5074 390.881H80.8686C83.0433 390.881 84.8062 389.118 84.8062 386.942V357.414C84.8062 355.239 83.0433 353.475 80.8686 353.475Z" fill="#FB8B0D"/>
<path d="M32.9769 353.638C32.9769 353.638 42.325 346.746 43.7197 346.912C45.1144 347.077 47.3267 347.567 47.3267 347.567L38.9615 353.881L32.9769 353.638Z" fill="#FFB703"/>
<path d="M106.767 244.79C103.018 241.958 94.2655 239.589 89.88 239.078C88.849 238.961 85.7711 238.949 85.738 238.949C85.738 242.103 79.023 244.827 73.5494 244.469C68.9385 244.168 65.9447 240.659 65.9447 238.756C65.59 238.756 47.6092 251.234 45.3548 263.666C45.2035 264.486 45.126 265.317 45.1234 266.15C45.0512 325.288 41.4683 334.359 42.6015 334.338C42.6015 334.338 49.3255 339.512 61.8027 340.736C63.4168 340.898 65.1271 340.989 66.9306 340.998C71.9936 341.016 77.045 340.512 82.0048 339.494C84.3444 339.015 86.6571 338.413 88.9332 337.69C97.6681 334.921 102.871 331.256 102.832 330.21C102.787 329.043 103 327.564 102.856 325.904C102.312 319.644 102.015 314.178 101.783 308.664C111.263 309.497 116.734 308.559 116.734 308.559C124.495 291.869 111.838 248.624 106.767 244.79ZM104.554 292.927C103.977 293.083 103.352 293.228 102.682 293.372C102.219 293.471 101.735 293.568 101.236 293.673C101.236 293.444 101.221 293.216 101.212 292.993C101.083 289.896 100.938 286.944 100.734 284.139C100.566 281.79 100.355 279.541 100.079 277.398C103.349 286.012 105.631 292.638 104.554 292.927Z" fill="#87CBDB"/>
<path d="M65.9447 238.768C65.9447 238.768 52.0578 240.873 46.0792 245.858C40.1007 250.843 39.4965 282.572 37.5036 291.544C37.1099 293.306 36.7582 296.147 36.4546 299.614C35.3875 311.788 36.668 328.667 37.7261 334.909C37.9007 336.909 37.6222 338.922 36.9115 340.799C35.3815 344.63 35.0539 345.721 37.7862 347.91C40.5185 350.099 43.4732 353.16 45.5502 352.285C47.1523 351.611 46.8698 340.98 46.6564 336.151C49.061 325.838 52.9385 306.481 56.5936 287.723C61.472 262.713 65.9447 238.768 65.9447 238.768Z" fill="#FC9A2B"/>
<path d="M65.9447 238.771C65.9447 238.771 63.3657 252.56 59.9902 270.155C58.9201 275.738 57.7689 281.7 56.5936 287.722C51.8143 297.091 47.7144 303.462 46.4489 302.263C43.8639 299.821 39.3251 299.521 36.4576 299.611C36.7582 296.147 37.1128 293.297 37.5036 291.544C37.6599 290.834 37.8042 289.983 37.9515 289.015C39.6257 277.728 40.5725 250.446 46.0672 245.858C48.9648 243.452 53.714 241.708 57.844 240.551C59.9481 239.965 61.9019 239.532 63.3597 239.237C64.9467 238.921 65.9447 238.771 65.9447 238.771Z" fill="#87CBDB"/>
<path d="M46.4489 302.263C43.8639 299.821 39.3282 299.521 36.4546 299.614C36.7552 296.147 37.1099 293.3 37.5036 291.544C37.6599 290.834 37.8042 289.983 37.9515 289.015L52.2802 254.421C52.2802 254.421 47.7144 303.462 46.4489 302.263Z" fill="#219EBC"/>
<path d="M85.7741 238.428C85.8793 233.599 85.7981 227.833 85.1458 222.962L65.8785 226.101C65.8785 226.101 65.8785 231.982 65.9627 238.509H65.9417C65.9417 238.509 65.4187 244.562 72.8731 245.449C80.3275 246.336 85.9664 243.089 85.7741 238.428Z" fill="#FC9A2B"/>
<path d="M69.6479 494.485C72.0706 492.981 70.6518 481.857 70.6518 481.857C70.6518 481.857 59.3048 472.837 57.7749 479.785C56.2449 486.733 47.0651 489.869 41.844 490.738C38.237 491.34 37.1219 493.342 36.7822 494.527L69.6479 494.485Z" fill="#07344B"/>
<path d="M102.685 293.387C102.685 293.387 99.0749 298.261 98.3384 298.261C97.602 298.261 88.4974 294.734 91.1064 286.836C93.7155 278.937 100.094 277.386 100.094 277.386C100.37 279.529 100.581 281.778 100.749 284.127C100.953 286.932 101.098 289.884 101.227 292.981C101.227 293.204 101.227 293.432 101.251 293.661C101.75 293.568 102.234 293.471 102.697 293.36L102.685 293.387Z" fill="#219EBC"/>
<path d="M104.419 494.485C106.842 492.981 105.423 481.857 105.423 481.857C105.423 481.857 94.0762 472.837 92.5462 479.785C91.0163 486.733 81.8365 489.869 76.6154 490.738C73.0084 491.34 71.8932 493.342 71.5536 494.527L104.419 494.485Z" fill="#07344B"/>
<path d="M87.6077 217.382C87.6077 217.382 100.47 197.093 75.7707 195.752C75.7707 195.752 66.5068 196.843 64.4117 194.745C64.4117 194.745 57.2248 205.668 63.9338 217.382C70.6428 229.096 87.6077 217.382 87.6077 217.382Z" fill="#8ECAE6"/>
<path d="M66.4497 227.98C68.3223 229.454 73.8109 230.915 75.398 231.086C75.398 231.086 83.5378 229.282 85.0166 228.38C87.3071 226.991 87.1598 224.171 87.277 220.262C87.4183 215.635 87.8782 212 87.3672 209.33C86.766 206.14 84.7311 204.324 79.0651 203.831C68.668 202.929 64.3366 205.532 64.1532 209.017C64.1081 209.955 64.063 210.848 64.033 211.693C63.6212 222.571 64.4808 226.429 66.4497 227.98Z" fill="#FC9A2B"/>
<path d="M63.9428 215.277C64.042 221.576 65.7463 225.307 66.9727 225.776C68.5354 226.361 70.1511 226.793 71.797 227.066C72.3832 227.135 72.9422 227.114 72.9362 226.784C72.9182 225.788 71.5896 224.565 72.5755 223.684C73.6095 222.761 79.1643 222.451 79.6122 224.465C79.8286 225.446 78.0401 227.171 79.2665 227.22C79.6392 227.156 80.0029 227.084 80.3516 226.994C81.8616 226.574 83.3032 225.938 84.6319 225.106C86.9223 223.717 86.772 221.585 87.28 217.706C87.6076 215.196 87.6076 216.558 87.28 220.28C86.9373 224.189 87.6076 226.678 85.0196 228.398C83.5768 229.354 75.2778 233.083 75.2778 233.083C75.398 231.107 68.3223 229.475 66.4497 228.001C64.7123 226.612 63.8376 223.452 63.9428 215.277Z" fill="#8ECAE6"/>
<path d="M102.829 330.231C102.868 331.277 97.6651 334.942 88.9302 337.711C88.2269 337.937 87.4965 338.15 86.748 338.361C86.743 338.361 86.7384 338.364 86.735 338.368C86.7317 338.372 86.7299 338.377 86.73 338.382C85.9154 347.946 83.7091 361.455 81.7193 374.495C81.2053 377.874 80.7063 381.221 80.2464 384.459C79.0441 393.031 78.1243 400.839 78.0251 406.462V406.519C77.983 409.098 80.1562 415.539 80.3216 417.021C80.4238 417.923 80.5049 418.891 80.565 419.898C80.7774 424.519 80.7162 429.148 80.3817 433.762C78.9539 455.93 73.0986 484.292 71.0095 485.501C66.8555 487.906 59.2868 485.501 55.4574 484.935C53.8643 484.701 52.5929 483.345 52.674 481.739C54.5497 444.95 49.1602 393.713 45.1324 362.215C45.0272 361.395 44.922 360.592 44.8318 359.81C44.3479 356.094 44.0293 352.627 43.8309 349.5C43.6475 346.755 43.5574 344.266 43.5303 342.107C43.5303 341.433 43.5233 340.793 43.5093 340.186C43.5093 338.213 45.0693 325.303 45.1414 266.165C45.1438 265.506 45.4066 264.875 45.8723 264.41C46.3381 263.945 46.969 263.683 47.6273 263.681H83.7602C84.59 263.681 85.4114 263.847 86.1768 264.167C86.9422 264.488 87.6363 264.957 88.2188 265.548C88.8013 266.139 89.2606 266.84 89.57 267.61C89.8795 268.38 90.0329 269.204 90.0213 270.034C89.9642 274.544 90.1296 280.858 91.1065 286.857C92.441 295.068 95.2996 302.741 101.197 304.596C101.202 304.594 101.207 304.594 101.212 304.596C101.239 304.653 101.398 305.014 101.657 305.612C101.715 307.097 101.777 308.61 101.843 310.149C101.858 310.45 101.87 310.768 101.885 311.081L101.912 311.628L101.957 312.569C101.982 313.09 102.009 313.61 102.039 314.139C102.06 314.551 102.084 314.966 102.108 315.384C102.15 316.185 102.198 316.994 102.252 317.81C102.252 318.072 102.279 318.333 102.3 318.598C102.369 319.653 102.441 320.727 102.523 321.806C102.547 322.14 102.574 322.47 102.598 322.804L102.634 323.288C102.667 323.709 102.7 324.133 102.736 324.56C102.772 324.987 102.811 325.462 102.85 325.919C102.997 327.585 102.799 329.064 102.829 330.231Z" fill="#1B4559"/>
<path d="M80.3816 433.765C78.9539 455.933 73.0985 484.295 71.0095 485.504C66.8555 487.909 59.2868 485.504 55.4574 484.938C53.8643 484.704 52.5928 483.348 52.674 481.742C54.5496 444.953 49.1602 393.716 45.1324 362.218C45.0272 361.398 44.922 360.595 44.8318 359.813C44.3479 356.097 44.0293 352.63 43.8309 349.503C45.7456 337.014 56.5575 336.346 66.3745 362.179C70.5556 372.177 80.7063 428.684 80.3816 433.765Z" fill="#07344B"/>
<path d="M103.232 405.421C103.533 407.983 106.538 414.078 106.89 415.527C111.847 435.47 109.108 482.75 106.65 484.641C102.847 487.566 95.0381 486.174 91.1575 486.123C89.5494 486.099 88.1096 484.921 87.9804 483.321C84.9325 445.651 72.302 393.909 64.1803 363.472C60.0924 348.138 59.5123 336.866 59.5123 336.866C59.5123 336.866 97.4728 313.604 101.594 326.31C105.204 337.558 100.944 385.755 103.232 405.421Z" fill="#1B4559"/>
<path d="M89.321 192.459C88.4609 191.357 87.4866 190.35 86.4143 189.453C86.1138 189.197 85.8132 188.942 85.4645 188.686C82.0349 186.073 76.5432 183.527 69.9274 186.281C68.2573 186.977 66.7291 187.974 65.4187 189.221C65.1181 189.498 64.8476 189.784 64.5861 190.078C58.848 196.446 59.3349 206.434 59.3349 206.434L92.444 206.08C92.5372 196.846 89.321 192.459 89.321 192.459Z" fill="#FFB703"/>
<path d="M83.138 206.188C83.138 206.065 82.1581 193.56 86.4143 189.459C86.2363 189.292 86.0486 189.137 85.8523 188.993C81.3706 193.659 81.2804 205.68 81.3195 206.209L83.138 206.188Z" fill="#FB8B0D"/>
<path d="M70.73 206.323C70.4294 198.205 65.9417 190.135 65.4037 189.233C65.1898 189.43 64.989 189.639 64.8025 189.862C65.578 191.227 68.4997 199.047 68.7792 206.344L59.3289 206.447C59.3289 206.447 68.148 208.726 74.7879 208.644C81.4277 208.563 92.438 206.092 92.438 206.092L70.73 206.323Z" fill="#FB8B0D"/>
<path d="M91.1815 239.264C91.1815 239.264 79.9939 252.301 79.3536 263.684H85.0407C85.0407 263.684 86.4895 251.321 94.9088 240.055L91.1815 239.264Z" fill="#1B4559"/>
<path d="M63.3717 239.237C55.3582 251.357 54.4054 263.684 54.4054 263.684H48.7214C49.1933 254.742 54.7541 245.22 57.8531 240.56C59.9662 239.965 61.9199 239.532 63.3717 239.237Z" fill="#1B4559"/>
<path d="M121.135 309.686C120.835 304.444 120.188 299.229 119.199 294.072C119.22 296.842 119.01 299.609 118.571 302.344C119.977 313.559 119.433 322.131 116.935 326.983C115.532 329.82 113.353 332.201 110.65 333.848C112.025 332.495 113.196 330.95 114.125 329.259C116.046 325.817 117.813 319.41 117.158 307.59C117.026 307.927 116.887 308.252 116.74 308.568C116.74 308.568 116.253 308.652 115.315 308.748C115.7 317.389 114.777 324.007 112.571 327.967C111.056 330.798 108.74 333.12 105.913 334.641C106.79 333.766 107.583 332.81 108.279 331.785C110.557 328.436 112.935 321.863 113.037 308.934C112.47 308.966 111.84 308.993 111.146 309.013C111.041 318.935 109.58 326.292 106.83 330.321C106.704 330.507 106.571 330.694 106.436 330.874C108.522 327.293 110.518 320.802 110.62 309.022C110.019 309.022 109.397 309.022 108.727 309.022C108.627 318.92 107.161 326.286 104.413 330.312C102.841 332.705 100.641 334.619 98.0529 335.844C97.2954 335.715 96.5199 335.543 95.7414 335.336C95.6362 335.312 95.531 335.285 95.4408 335.252H95.4077L95.1072 335.165C94.1573 334.888 93.2355 334.572 92.3418 334.217C81.4036 329.873 75.1275 320.086 74.5173 312.046C74.0845 306.334 74.5474 297.828 75.7016 288.576C77.974 270.344 82.9156 249.207 88.9452 240.806C89.0474 240.665 89.1436 240.527 89.2458 240.395C89.3721 240.229 89.4983 240.067 89.6276 239.916C89.85 239.649 90.0694 239.399 90.2948 239.171C90.7139 238.732 91.1853 238.346 91.6986 238.022C91.8437 238.113 91.9823 238.213 92.1134 238.323C92.6366 238.742 93.1052 239.224 93.5081 239.76V239.775C94.1363 239.91 94.7886 240.076 95.4558 240.235C95.7564 240.319 96.0841 240.401 96.4027 240.494C96.4226 240.491 96.4429 240.491 96.4628 240.494C96.5379 240.509 96.6131 240.533 96.6852 240.554C97.076 240.662 97.4667 240.776 97.8605 240.894L98.5308 241.101L99.3183 241.357L100.172 241.657C100.473 241.763 100.773 241.871 101.074 241.982L101.056 241.955C97.5058 236.324 94.9839 235.028 93.3518 235.121C93.0938 235.133 92.8374 235.167 92.5853 235.223C92.3177 235.151 92.0419 235.113 91.7647 235.112C91.2025 235.117 90.6453 235.219 90.1175 235.412C88.4342 235.575 86.6638 236.639 84.8303 238.597C84.704 238.726 84.5808 238.864 84.4545 239.005C83.3285 240.306 82.3074 241.693 81.4006 243.155L81.3826 243.182C71.6888 258.516 62.6503 292.551 62.1123 308.486C61.6884 321.096 71.3942 332.371 81.2022 336.99C82.1321 337.429 83.0842 337.819 84.0548 338.159C84.5878 338.346 85.1148 338.512 85.6358 338.658H85.6689C87.5873 339.212 89.5727 339.499 91.5693 339.512C91.9751 339.512 92.3749 339.512 92.7716 339.473C93.1804 339.5 93.5862 339.512 93.989 339.512C95.7199 339.519 97.4422 339.268 99.0989 338.766C99.3544 338.766 99.6099 338.736 99.8624 338.718C100.115 338.7 100.295 338.679 100.506 338.652C100.92 338.604 101.332 338.541 101.738 338.466C102.898 338.475 104.056 338.386 105.201 338.198C108.647 337.66 111.854 336.102 114.408 333.724C116.087 332.143 117.479 330.281 118.52 328.222C120.158 325.02 121.606 319.434 121.135 309.686ZM64.0059 308.556C64.4809 294.451 72.1908 264.496 80.7153 248.323C80.4147 249.039 80.1141 249.778 79.8135 250.539C71.7579 267.605 64.9918 294.737 64.532 308.462C64.3366 314.199 66.2393 319.656 69.2962 324.338C65.614 319.181 63.8316 313.399 63.9969 308.568L64.0059 308.556ZM84.3042 334.822C72.1728 329.109 66.125 317.284 66.4226 308.556C66.6811 300.807 69.1279 288.27 72.6928 275.864C69.9124 289.274 68.3614 302.876 68.7431 311.231C69.224 321.812 76.7386 330.609 85.1308 335.192C84.8453 335.089 84.5748 334.966 84.2952 334.834L84.3042 334.822ZM70.6187 311.105C70.0657 299.006 73.8891 274.646 79.543 257.172C80.1773 255.217 80.8325 253.347 81.5088 251.588C81.7613 251.053 82.0138 250.533 82.2663 250.019C77.9139 261.943 74.6435 278.985 73.2248 293.297C72.4974 300.696 72.2659 307.365 72.6236 312.239C73.2849 320.958 78.7254 328.264 85.4104 332.903C76.0893 327.747 70.9374 318.577 70.6097 311.117L70.6187 311.105Z" fill="#FFB703"/>
<path d="M102.685 293.387C102.384 293.432 96.562 294.494 96.2434 294.539C86.5616 295.958 73.5344 296.583 72.1788 296.643C72.0525 296.526 67.4296 292.22 65.6291 292.22C63.8286 292.22 58.5353 294.139 57.9973 295.615C57.4592 297.091 57.2458 299.749 58.7487 300.341C60.2517 300.934 66.4887 302.407 68.0999 302.557C68.3579 302.58 68.6173 302.58 68.8754 302.557C78.4193 305.4 88.2028 307.364 98.104 308.426C98.7893 308.496 102.751 309.028 106.271 308.977C106.148 302.284 103.896 296.105 102.685 293.387Z" fill="#FC9A2B"/>
<path d="M314.198 155.363V152.82H308.632V136.024H304.024V152.82H292.352V136.024H287.744V152.82H275.057V136.024H270.449V152.82H258.777V136.024H254.169V152.82H248.064V155.363H254.169V163.538H248.064V166.082H254.169V174.257H248.064V176.792H254.169V184.967H248.064V187.51H254.169V195.686H248.064V198.229H254.169V206.407H248.064V208.963H254.169V215.578H248.064V218.121H254.169V226.296H248.064V228.843H254.169V237.018H248.064V239.562H254.169V247.749H248.064V250.293H254.169V258.471H248.064V261.014H254.169V269.189H248.064V271.733H254.169V279.535H248.064V282.082H254.169V290.257H248.064V292.801H254.169V300.967H248.064V303.511H254.169V311.689H248.064V314.232H254.169V322.407H248.064V324.951H254.169V333.138H248.064V335.685H254.169V342.299H248.064V344.843H254.169V353.018H248.064V355.562H254.169V363.74H248.064V366.284H254.169V374.459H248.064V377.002H254.169V385.153H248.064V387.7H254.169V395.875H248.064V398.419H254.169V405.713H248.064V408.257H254.169V416.432H248.064V418.978H254.169V427.153H248.064V429.697H254.169V437.872H248.064V440.416H254.169V448.594H248.064V451.138H254.169V459.313H248.064V461.856H254.169V468.471H248.064V471.018H254.169V479.193H248.064V481.736H254.169V489.912H248.064V492.455H314.192V489.912H308.626V481.736H314.192V479.193H308.626V471.018H314.192V468.471H308.626V461.856H314.192V459.313H308.626V451.138H314.192V448.594H308.626V440.416H314.192V437.872H308.626V429.697H314.192V427.153H308.626V418.978H314.192V416.432H308.626V408.257H314.192V405.713H308.626V398.419H314.192V395.875H308.626V387.709H314.192V385.153H308.626V376.978H314.192V374.435H308.626V366.26H314.192V363.716H308.626V355.538H314.192V352.994H308.626V344.819H314.192V342.275H308.626V335.661H314.192V333.138H308.626V324.963H314.192V322.419H308.626V314.244H314.192V311.701H308.626V303.523H314.192V300.967H308.626V292.789H314.192V290.245H308.626V282.07H314.192V279.523H308.626V271.721H314.192V269.177H308.626V261.002H314.192V258.459H308.626V250.281H314.192V247.749H308.626V239.562H314.192V237.018H308.626V228.843H314.192V226.296H308.626V218.121H314.192V215.578H308.626V208.963H314.192V206.419H308.626V198.241H314.192V195.698H308.626V187.523H314.192V184.979H308.626V176.792H314.192V174.245H308.626V166.082H314.192V163.538H308.626V155.363H314.198ZM287.747 155.363V163.538H275.057V155.363H287.747ZM275.057 479.202V471.027H287.744V479.202H275.057ZM287.744 481.745V489.921H275.057V481.745H287.744ZM275.057 468.48V461.865H287.744V468.48H275.057ZM275.057 459.322V451.147H287.744V459.322H275.057ZM275.057 448.603V440.425H287.744V448.594L275.057 448.603ZM275.057 437.881V429.706H287.744V437.881H275.057ZM275.057 427.162V418.987H287.744V427.162H275.057ZM275.057 416.441V408.266H287.744V416.441H275.057ZM275.057 405.722V398.428H287.744V405.722H275.057ZM275.057 395.884V387.709H287.744V395.884H275.057ZM275.057 385.162V376.987H287.744V385.153L275.057 385.162ZM275.057 374.444V366.269H287.744V374.444H275.057ZM275.057 363.725V355.547H287.744V363.725H275.057ZM275.057 353.003V344.828H287.744V353.003H275.057ZM275.057 342.284V335.67H287.744V342.284H275.057ZM275.057 333.123V324.948H287.744V333.138L275.057 333.123ZM275.057 322.404V314.229H287.744V322.404H275.057ZM275.057 311.686V303.508H287.744V311.686H275.057ZM275.057 300.964V292.789H287.744V300.967L275.057 300.964ZM275.057 290.245V282.07H287.744V290.245H275.057ZM275.057 279.523V271.721H287.744V279.523H275.057ZM275.057 269.177V261.002H287.744V269.177H275.057ZM275.057 258.459V250.281H287.744V258.459H275.057ZM275.057 247.737V239.562H287.744V247.749L275.057 247.737ZM275.057 237.018V228.843H287.744V237.018H275.057ZM275.057 226.296V218.121H287.744V226.296H275.057ZM275.057 215.578V208.963H287.744V215.578H275.057ZM275.057 206.419V198.241H287.744V206.419H275.057ZM275.057 195.698V187.523H287.744V195.698H275.057ZM275.057 184.979V176.792H287.744V184.967L275.057 184.979ZM275.057 174.257V166.082H287.744V174.257H275.057ZM258.777 155.363H270.449V163.538H258.777V155.363ZM258.777 166.082H270.449V174.257H258.777V166.082ZM258.777 176.804H270.449V184.979H258.777V176.804ZM258.777 187.523H270.449V195.698H258.777V187.523ZM258.777 198.241H270.449V206.419H258.777V198.241ZM258.777 208.963H270.449V215.578H258.777V208.963ZM258.777 218.121H270.449V226.296H258.777V218.121ZM258.777 228.843H270.449V237.018H258.777V228.843ZM258.777 239.562H270.449V247.749H258.777V239.562ZM258.777 250.281H270.449V258.459H258.777V250.281ZM258.777 261.002H270.449V269.177H258.777V261.002ZM258.777 271.721H270.449V279.523H258.777V271.721ZM258.777 282.07H270.449V290.245H258.777V282.07ZM258.777 292.789H270.449V300.967H258.777V292.789ZM258.777 303.508H270.449V311.686H258.777V303.508ZM258.777 314.229H270.449V322.404H258.777V314.229ZM258.777 324.948H270.449V333.138H258.777V324.948ZM258.777 335.67H270.449V342.284H258.777V335.67ZM258.777 344.828H270.449V353.003H258.777V344.828ZM258.777 355.547H270.449V363.725H258.777V355.547ZM258.777 366.269H270.449V374.444H258.777V366.269ZM258.777 376.987H270.449V385.153H258.777V376.987ZM258.777 387.709H270.449V395.884H258.777V387.709ZM258.777 398.428H270.449V405.722H258.777V398.428ZM258.777 408.266H270.449V416.441H258.777V408.266ZM258.777 418.987H270.449V427.162H258.777V418.987ZM258.777 429.706H270.449V437.881H258.777V429.706ZM258.777 440.425H270.449V448.594H258.777V440.425ZM258.777 451.147H270.449V459.322H258.777V451.147ZM258.777 461.865H270.449V468.48H258.777V461.865ZM258.777 471.027H270.449V479.202H258.777V471.027ZM258.777 481.745H270.449V489.921H258.777V481.745ZM304.024 489.921H292.352V481.745H304.024V489.921ZM304.024 479.202H292.352V471.027H304.024V479.202ZM304.024 468.48H292.352V461.865H304.024V468.48ZM304.024 459.322H292.352V451.147H304.024V459.322ZM304.024 448.603H292.352V440.425H304.024V448.603ZM304.024 437.881H292.352V429.706H304.024V437.881ZM304.024 427.162H292.352V418.987H304.024V427.162ZM304.024 416.441H292.352V408.266H304.024V416.441ZM304.024 405.722H292.352V398.428H304.024V405.722ZM304.024 395.884H292.352V387.709H304.024V395.884ZM304.024 385.162H292.352V376.987H304.024V385.162ZM304.024 374.444H292.352V366.269H304.024V374.444ZM304.024 363.725H292.352V355.547H304.024V363.725ZM304.024 353.003H292.352V344.828H304.024V353.003ZM304.024 342.284H292.352V335.67H304.024V342.284ZM304.024 333.123H292.352V324.948H304.024V333.123ZM304.024 322.404H292.352V314.229H304.024V322.404ZM304.024 311.686H292.352V303.508H304.024V311.686ZM304.024 300.964H292.352V292.789H304.024V300.964ZM304.024 290.245H292.352V282.07H304.024V290.245ZM304.024 279.523H292.352V271.721H304.024V279.523ZM304.024 269.177H292.352V261.002H304.024V269.177ZM304.024 258.459H292.352V250.281H304.024V258.459ZM304.024 247.737H292.352V239.562H304.024V247.737ZM304.024 237.018H292.352V228.843H304.024V237.018ZM304.024 226.296H292.352V218.121H304.024V226.296ZM304.024 215.578H292.352V208.963H304.024V215.578ZM304.024 206.419H292.352V198.241H304.024V206.419ZM304.024 195.698H292.352V187.523H304.024V195.698ZM304.024 184.979H292.352V176.792H304.024V184.979ZM304.024 174.257H292.352V166.082H304.024V174.257ZM304.024 163.538H292.352V155.363H304.024V163.538Z" fill="#DCE2E5"/>
<path d="M370.221 0H368.592V29.0323H370.221V0Z" fill="#DCE2E5"/>
<path d="M460.555 0H458.926V29.0323H460.555V0Z" fill="#DCE2E5"/>
<path d="M381.634 0H380.005V29.0323H381.634V0Z" fill="#DCE2E5"/>
<path d="M468.707 0H467.078V29.0323H468.707V0Z" fill="#DCE2E5"/>
<path d="M139.317 427.929C139.066 427.872 138.803 427.917 138.585 428.053C138.367 428.19 138.212 428.406 138.154 428.657L129.353 467.106C126.975 467.178 124.558 469.752 123.738 473.339L122.899 477.001C122.85 477.199 122.811 477.4 122.785 477.602L132.557 479.863C132.643 479.671 132.707 479.469 132.746 479.262L133.585 475.597C134.402 472.022 133.353 468.657 131.237 467.548L140.041 429.093C140.098 428.842 140.054 428.58 139.918 428.362C139.783 428.144 139.566 427.988 139.317 427.929Z" fill="#1B4559"/>
<path d="M113.737 477.557C113.737 477.557 134.039 472.298 140.519 476.58C147 480.861 137.213 485.386 137.213 485.386L113.737 477.557Z" fill="#FCA23D"/>
<path d="M270.506 245.692C266.616 257.572 245.476 278.116 242.552 280.158C242.552 280.158 237.631 271.956 238.617 267.361C239.42 263.612 247.653 250.242 250.472 243.675C250.619 243.332 250.752 243.007 250.866 242.707C251.254 241.7 251.467 240.903 251.41 240.455C251.269 239.027 246.784 235.557 241.572 231.435C234.797 226.08 226.795 219.64 225.494 215.199C223.2 207.321 215.244 176.142 215.244 176.142C215.244 176.142 235.007 180.4 240.586 185.328C246.165 190.256 270.109 231.266 271.092 241.766C271.164 243.101 270.965 244.437 270.506 245.692Z" fill="#FFB703"/>
<path d="M270.506 245.692C266.616 257.572 245.476 278.116 242.552 280.158C242.552 280.158 237.631 271.956 238.617 267.361C239.462 263.417 248.536 248.828 250.866 242.707C254.38 242.097 262.628 241.348 270.506 245.692Z" fill="#FC9A2B"/>
<path d="M215.25 173.391V175.814C215.25 175.814 215.908 183.385 206.587 184.492C197.266 185.598 190.244 182.219 190.497 176.374C191.336 171.849 192.213 168.063 192.276 164.32C192.297 162.801 192.187 161.283 191.946 159.783L210.011 159.422L215.331 160.294L215.25 173.391Z" fill="#FC9A2B"/>
<path d="M215.319 160.294L215.25 173.391C213.212 174.344 210.989 174.835 208.739 174.828C200.437 174.828 195.069 168.74 192.264 164.305C192.285 162.786 192.175 161.268 191.934 159.768L209.999 159.407L215.319 160.294Z" fill="#FB8500"/>
<path d="M199.328 494.506C199.328 494.506 198.45 487.675 196.421 483.613C194.392 479.551 181.467 482.136 181.467 482.136C181.467 482.136 178.882 484.352 178.329 494.692L199.328 494.506Z" fill="#07344B"/>
<path d="M243.354 494.485C240.318 492.633 242.047 478.802 242.047 478.802C242.047 478.802 256.195 467.479 258.14 476.147C260.085 484.815 271.582 488.709 278.126 489.77C282.634 490.504 284.041 493.005 284.474 494.485H243.354Z" fill="#07344B"/>
<path d="M214.048 392.369C214.544 394.895 214.891 397.449 215.088 400.015C216.401 425.677 236.681 484.352 240.309 485.705C245.921 487.81 254.761 483.321 259.384 481.848C261.302 481.246 262.595 479.301 262.168 477.338C252.125 431.155 248.434 364.66 247.079 325.285C246.399 305.441 242.997 291.755 242.997 291.755C242.997 291.755 193.545 278.555 193.253 295.254C192.992 310.029 209.638 367.982 214.048 392.369Z" fill="#1B4559"/>
<path d="M214.048 392.369L247.079 325.285C246.399 305.441 242.997 291.755 242.997 291.755C242.997 291.755 193.545 278.555 193.253 295.254C192.992 310.029 209.638 367.982 214.048 392.369Z" fill="#07344B"/>
<path d="M225.052 295.311L198.901 484.881C198.901 484.881 187.419 487.651 178.489 485.435C178.489 485.435 170.833 384.612 171.47 360.237C172.107 335.862 165.975 295.017 172.871 290.513C179.766 286.009 225.052 295.311 225.052 295.311Z" fill="#1B4559"/>
<path d="M244.433 295.663C244.433 295.663 231.073 303.456 211.718 303.234C205.132 303.188 198.557 302.694 192.039 301.755C176.517 299.451 168.684 295.119 168.744 293.504C168.798 292.046 168.9 287.205 169.083 285.125C171.548 256.67 170.286 234.538 173.592 217.914C173.631 217.712 173.673 217.511 173.715 217.312C178.107 196.173 184.993 184.029 188.411 179.05C189.661 177.246 190.443 176.371 190.485 176.371C190.485 180.315 198.88 183.722 205.727 183.286C211.496 182.91 215.238 178.523 215.238 176.148C215.71 176.148 241.25 193.906 241.274 210.406C241.367 284.346 245.849 295.687 244.433 295.663Z" fill="#FFB703"/>
<path d="M192.072 301.514L192.036 301.755C176.514 299.451 168.681 295.119 168.741 293.504C168.795 292.046 168.897 287.205 169.08 285.125C171.545 256.67 170.283 234.538 173.589 217.914C181.741 228.807 198.492 257.337 192.072 301.514Z" fill="#FB8B0D"/>
<path d="M234.595 266.141L232.509 273.086L230.435 279.974L140.39 252.881C140.265 252.889 140.14 252.875 140.02 252.839C139.895 252.802 139.777 252.744 139.672 252.668C138.535 251.865 138.331 248.922 139.203 245.605C139.248 245.422 139.302 245.235 139.356 245.049C140.408 241.483 142.326 238.846 143.796 238.822C143.913 238.819 144.031 238.834 144.144 238.867C144.263 238.904 144.376 238.958 144.478 239.03L234.595 266.141Z" fill="#EDF1F2"/>
<path d="M232.509 273.086L230.435 279.974L140.39 252.881C140.265 252.889 140.14 252.875 140.02 252.839C139.895 252.802 139.777 252.744 139.672 252.668C138.535 251.865 138.331 248.922 139.203 245.605C142.882 248.368 160.463 260.59 190.467 266.535C221.484 272.68 231.082 273.065 232.509 273.086Z" fill="#C5CFD5"/>
<path d="M234.755 266.09C233.252 265.645 231.106 268.414 229.966 272.271C228.827 276.129 229.125 279.62 230.631 280.065C232.137 280.51 234.28 277.74 235.419 273.883C236.558 270.025 236.273 266.547 234.755 266.09Z" fill="#BDC9CF"/>
<path d="M145.13 236.483L134.514 234.76C134.402 234.706 134.284 234.667 134.162 234.646C134.046 234.629 133.929 234.629 133.813 234.646C132.355 234.862 130.807 237.728 130.227 241.402C130.194 241.597 130.167 241.784 130.146 241.973C129.944 243.413 129.957 244.876 130.185 246.312C130.42 247.602 130.876 248.54 131.499 248.892L131.535 248.913C131.761 249.038 132.023 249.08 132.277 249.033L225.094 264.096L226.245 256.994L227.405 249.839L145.13 236.483Z" fill="#EDF1F2"/>
<path d="M183.71 256.008C163.871 254.73 153.333 244.231 145.13 236.483L134.514 234.76C134.402 234.706 134.284 234.667 134.162 234.646C134.046 234.629 133.929 234.629 133.813 234.646C132.355 234.862 130.807 237.728 130.227 241.402C130.194 241.597 130.167 241.784 130.146 241.973C129.944 243.413 129.957 244.876 130.185 246.312C130.684 247.722 131.195 248.681 131.499 248.892L131.535 248.913C131.761 249.038 132.023 249.08 132.277 249.033L225.094 264.096L226.245 256.994C224.835 257.163 215.265 258.038 183.71 256.008Z" fill="#C5CFD5"/>
<path d="M227.571 249.775C226.02 249.532 224.264 252.557 223.633 256.531C223.002 260.506 223.759 263.925 225.31 264.168C226.861 264.412 228.617 261.39 229.251 257.415C229.885 253.441 229.122 250.019 227.571 249.775Z" fill="#BDC9CF"/>
<path d="M194.552 277.097C173.021 273.672 158.783 264.646 152.951 260.284C150.955 258.78 149.945 257.845 149.945 257.845C138.914 234.646 158.87 193.972 162.519 187.078C166.453 179.642 190.491 176.374 190.491 176.374C187.836 184.843 186.05 193.56 185.159 202.39C183.656 217.123 167.665 245.813 168.326 248.221C168.491 248.822 170.43 250.1 173.241 251.709C181.597 256.468 197.741 264.138 198.721 265.939C200.016 268.345 194.552 277.097 194.552 277.097Z" fill="#FC9A2B"/>
<path d="M198.706 265.939C198.706 265.939 210.729 261.129 213.687 263.095C216.645 265.061 221.559 268.017 221.559 269.998C221.559 271.98 215.325 277.214 210.077 278.859C204.829 280.504 194.552 277.106 194.552 277.106L198.706 265.939Z" fill="#FC9A2B"/>
<path d="M185.159 202.39C183.656 217.123 167.665 245.813 168.326 248.221C168.491 248.822 170.43 250.1 173.24 251.709C173.06 251.719 172.88 251.719 172.699 251.709C160.117 251.153 154.421 258.116 152.969 260.272C150.973 258.768 149.963 257.833 149.963 257.833C138.932 234.634 158.888 193.96 162.537 187.066C166.471 179.63 190.509 176.362 190.509 176.362C187.848 184.834 186.055 193.555 185.159 202.39Z" fill="#FFB703"/>
<path d="M216.374 166.659C216.374 166.659 193.229 171.335 190.548 156.876C187.867 142.417 183.055 133.285 197.72 129.689C212.385 126.093 216.284 131.075 218.355 135.682C220.426 140.288 222.323 165.066 216.374 166.659Z" fill="#FC9A2B"/>
<path d="M191.011 161.046C191.011 161.046 186.538 151.497 182.808 147.254C179.078 143.012 181.113 121.815 197.236 122.494C213.359 123.174 219.106 134.705 219.278 136.908C219.449 139.112 206.392 137.42 202.83 140.303C199.268 143.186 202.661 147.934 198.592 149.624C194.522 151.313 191.299 151.319 191.979 155.051C192.658 158.782 191.011 161.046 191.011 161.046Z" fill="#07344B"/>
<path d="M195.98 112.648C191.369 113.808 187.912 115.654 185.33 117.885C185.074 118.105 184.825 118.333 184.584 118.562C175.032 127.678 178.846 142.179 178.846 142.179C178.846 142.179 180.118 145.844 180.993 147.266C181.867 148.688 194.552 147.047 195.207 144.314C195.862 141.581 198.384 138.736 198.384 138.736C198.384 138.736 211.754 137.816 212.653 137.75C215.659 137.531 224.294 134.533 224.294 134.533C224.189 133.685 219.338 106.782 195.98 112.648Z" fill="#FFB703"/>
<path d="M232.209 131.692C230.604 131.301 227.868 130.865 223.363 130.7C223.363 130.7 219.578 133.835 212.055 136.223C208.52 131.767 198.447 121.03 185.333 117.882L185.219 117.852C184.939 118.204 184.783 118.321 184.588 118.559C184.53 118.628 184.467 118.709 184.398 118.811C195.075 120.672 205.222 132.666 208.706 137.152C205.318 137.98 201.864 138.51 198.384 138.736C198.384 138.736 221.751 139.172 232.431 133.547C232.61 133.452 232.756 133.306 232.849 133.126C232.943 132.947 232.98 132.744 232.956 132.543C232.932 132.342 232.848 132.153 232.714 132.001C232.581 131.849 232.405 131.741 232.209 131.692Z" fill="#FB8B0D"/>
<path d="M256.003 237.827C255.57 240.28 254.247 242.863 250.472 243.672C250.619 243.329 250.752 243.005 250.866 242.704C251.254 241.697 251.467 240.9 251.41 240.452C251.269 239.024 246.784 235.554 241.572 231.432C241.142 229.096 240.093 222.162 241.572 216.66C243.372 209.94 256.496 235.04 256.003 237.827Z" fill="#FB8B0D"/>
<path d="M170.713 250.052C170.713 250.052 154.641 248.741 149.389 258.092C149.389 258.092 149.84 261.246 152.951 260.284C152.951 260.284 166.547 250.987 173.222 251.709C173.222 251.709 172.188 250.079 170.713 250.052Z" fill="#FB8B0D"/>
<path d="M250.472 243.675C250.472 243.675 258.801 244.024 269.322 248.597C269.322 248.597 271.651 246.306 270.722 244.989C269.793 243.672 255.002 238.964 250.472 243.675Z" fill="#FB8B0D"/>
<path d="M366.229 189.053C373.443 152.002 380.077 116.529 380.077 116.529C380.077 116.529 359.508 119.647 350.65 127.032C341.792 134.416 340.896 181.425 337.945 194.715C337.364 197.321 336.844 201.537 336.393 206.666C334.716 225.779 336.805 254.403 338.386 262.428C338.281 263.197 337.626 266.986 334.139 274.253C334.139 274.253 332.336 279.83 344.146 288.198C351.681 293.531 358.378 229.327 366.229 189.053Z" fill="#FC9A2B"/>
<path d="M380.077 116.529C380.077 116.529 376.26 136.975 371.261 163.03C369.677 171.299 367.955 180.129 366.229 189.053C359.15 202.935 353.076 212.37 351.2 210.596C347.374 206.988 340.653 206.534 336.396 206.666C336.847 201.537 337.367 197.321 337.947 194.715C338.182 193.662 338.401 192.402 338.615 190.971C341.092 174.248 342.495 133.845 350.638 127.032C359.496 119.647 380.077 116.529 380.077 116.529Z" fill="#8097A3"/>
<path d="M371.261 163.03C369.677 171.298 367.955 180.129 366.229 189.053C359.15 202.935 353.076 212.369 351.2 210.596C347.374 206.988 340.653 206.534 336.396 206.666C336.847 201.536 337.367 197.321 337.947 194.714C338.182 193.662 338.401 192.402 338.615 190.971L359.839 139.719L371.261 163.03Z" fill="#507080"/>
<path d="M409.456 116.009C409.612 108.853 409.492 100.311 408.527 93.0952L379.972 97.7616C379.972 97.7616 379.972 106.481 380.098 116.144H380.068C380.068 116.144 379.289 125.116 390.336 126.427C401.382 127.738 409.753 122.93 409.456 116.009Z" fill="#FC9A2B"/>
<path d="M379.9 99.5205C379.9 99.5205 386.627 113.303 394.328 113.303C402.029 113.303 409.255 100.341 409.255 100.341L379.9 99.5205Z" fill="#FB8500"/>
<path d="M398.927 494.536C398.927 494.536 399.967 486.442 402.371 481.628C404.776 476.814 420.084 479.878 420.084 479.878C420.084 479.878 423.147 482.503 423.803 494.752L398.927 494.536Z" fill="#07344B"/>
<path d="M346.772 494.425C350.379 492.23 348.32 475.846 348.32 475.846C348.32 475.846 331.56 462.434 329.255 472.701C326.949 482.969 313.324 487.581 305.581 488.838C300.23 489.707 298.571 492.672 298.066 494.425H346.772Z" fill="#07344B"/>
<path d="M412.173 84.863C412.173 84.863 431.23 54.7963 394.637 52.821C394.637 52.821 380.913 54.4355 377.805 51.3176C377.805 51.3176 367.158 67.5025 377.101 84.8539C387.045 102.205 412.173 84.863 412.173 84.863Z" fill="#07344B"/>
<path d="M380.837 100.546C383.612 102.729 391.743 104.896 394.096 105.149C394.096 105.149 406.155 102.443 408.347 101.138C411.743 99.0785 411.524 94.9113 411.698 89.1114C411.906 82.2563 412.6 76.8713 411.83 72.9176C410.929 68.1881 407.923 65.4971 399.534 64.7665C384.129 63.4285 377.711 67.2891 377.441 72.4545C377.372 73.8406 377.309 75.1605 377.264 76.4173C376.629 92.536 377.91 98.2487 380.837 100.546Z" fill="#FC9A2B"/>
<path d="M381.49 372.682C380.807 376.44 380.375 379.525 380.257 381.738C378.7 412.138 354.675 481.649 350.377 483.27C343.728 485.78 333.243 480.443 327.779 478.7C325.509 477.972 323.976 475.693 324.472 473.36C336.372 418.639 340.743 339.864 342.336 293.222C343.139 269.728 347.169 253.498 347.169 253.498C347.169 253.498 405.783 237.863 406.116 257.641C406.432 275.149 386.714 343.803 381.49 372.682Z" fill="#1B4559"/>
<path d="M381.49 372.682L342.345 293.222C343.148 269.728 347.178 253.498 347.178 253.498C347.178 253.498 405.792 237.863 406.125 257.641C406.432 275.149 386.714 343.803 381.49 372.682Z" fill="#07344B"/>
<path d="M368.451 257.71L399.428 482.284C399.428 482.284 413.033 485.567 423.613 482.942C423.613 482.942 432.682 363.502 431.924 334.627C431.167 305.751 438.435 257.355 430.268 252.024C422.101 246.694 368.451 257.71 368.451 257.71Z" fill="#1B4559"/>
<path d="M434.72 252.024C434.744 252.641 434.644 253.257 434.427 253.835C434.21 254.413 433.879 254.942 433.455 255.39C433.03 255.838 432.52 256.197 431.955 256.445C431.389 256.693 430.78 256.826 430.163 256.835L381.348 257.581L345.492 258.128C343.815 258.158 349.12 244.721 349.228 157.104C349.255 137.561 379.515 116.514 380.071 116.514C380.071 119.331 384.508 124.53 391.34 124.975C399.456 125.507 409.399 121.469 409.399 116.797C409.399 116.746 410.34 117.765 411.855 119.972C415.903 125.871 424.058 140.255 429.264 165.297C433.376 185.075 431.792 211.516 434.753 245.629C434.975 248.11 434.657 250.299 434.72 252.024Z" fill="#FFB703"/>
<path d="M432.919 257.106C432.919 257.106 426.43 260.013 414.283 262.518C405.266 264.394 393.116 266.054 378.195 266.144C354.47 266.297 345.483 258.116 345.483 258.116C343.806 258.146 349.111 244.709 349.219 157.092C349.246 137.549 379.506 116.502 380.062 116.502C380.062 116.502 379.286 142.537 387.159 150.192C387.159 150.192 398.199 141.662 412.525 117.38C416.574 123.279 424.049 140.231 429.255 165.285C430.313 170.382 430.996 175.917 431.474 181.912C432.853 199.191 432.547 220.289 434.744 245.617C434.96 248.083 434.642 250.272 434.705 251.997C434.822 254.625 435.519 257.07 432.919 257.106Z" fill="#8097A3"/>
<path d="M432.919 257.106C432.919 257.106 426.43 260.013 414.283 262.518C410.466 256.694 405.654 246.182 404.986 229.616C403.859 201.6 430.464 165.52 430.464 165.52L431.48 181.927C432.859 199.206 432.553 220.304 434.75 245.632C434.966 248.098 434.648 250.287 434.711 252.012C434.822 254.625 435.519 257.07 432.919 257.106Z" fill="#507080"/>
<path d="M409.875 162.244L364.523 188.435L400.44 250.662L445.791 224.471L409.875 162.244Z" fill="#1B4559"/>
<path d="M438.128 125.937C432.574 121.728 419.528 118.757 413.108 117.491C410.845 117.046 409.405 116.812 409.405 116.812C410.075 119.9 411.581 124.743 413.547 130.558C421.795 154.912 438.14 196.368 434.846 197.249C431.591 198.067 428.292 198.702 424.966 199.152C410.628 201.257 391.337 202.183 389.317 202.276C389.161 202.129 382.289 195.719 379.611 195.719C376.933 195.719 369.091 198.563 368.306 200.752C367.522 202.941 367.191 206.876 369.415 207.76C371.64 208.644 380.88 210.824 383.269 211.041C383.651 211.075 384.035 211.075 384.417 211.041C401.572 216.086 416.339 218.557 427.719 219.733C443.596 221.362 452.884 220.457 452.884 220.457C464.399 195.68 445.64 131.617 438.128 125.937Z" fill="#FC9A2B"/>
<path d="M452.89 220.44C452.89 220.44 443.602 221.342 427.725 219.715C428.6 215.4 429.415 206.973 424.966 199.152C428.292 198.702 431.591 198.067 434.846 197.249C438.152 196.368 421.795 154.927 413.547 130.558C412.889 122.681 412.54 117.407 412.54 117.407L413.108 117.491C419.528 118.757 432.574 121.737 438.128 125.937C445.64 131.617 464.399 195.68 452.89 220.44Z" fill="#8097A3"/>
<path d="M387.174 150.219C387.174 150.219 409.26 140.486 409.588 139.72C409.916 138.953 408.494 133.048 406.964 131.301C406.964 131.301 417.572 132.284 418.227 130.973C418.882 129.662 419.375 118.859 419.375 118.859C419.375 118.859 414.96 114.289 409.492 113.85C409.492 113.85 404.683 125.784 402.918 129.332C398.217 138.736 387.174 150.219 387.174 150.219Z" fill="#507080"/>
<path d="M381.923 130.97C381.923 130.97 383.344 142.344 387.174 150.213C387.174 150.213 375.637 142.173 374.652 139.548C373.666 136.923 377.441 131.839 377.441 131.839C377.441 131.839 370.552 131.674 370.389 129.377C370.227 127.08 372.52 118.057 372.52 118.057C372.52 118.057 378.445 113.73 380.086 113.892L381.923 130.97Z" fill="#507080"/>
<path d="M419.312 68.119L370.26 68.6451C370.26 68.6451 369.542 53.8493 378.042 44.4144C378.43 43.9785 378.842 43.5575 379.277 43.1456C381.225 41.2927 383.497 39.8148 385.98 38.786C395.782 34.6969 403.916 38.4853 408.999 42.3398C409.498 42.7187 409.97 43.0975 410.409 43.4764C411.995 44.8028 413.438 46.2923 414.713 47.9202C414.713 47.9202 419.474 54.4206 419.312 68.119Z" fill="#FFB703"/>
<path d="M405.536 68.2663C405.404 66.2758 404.538 49.3062 410.496 43.5545C410.238 43.3126 409.966 43.0858 409.681 42.875C403.33 49.4897 402.825 66.1887 402.852 68.2963L387.171 68.4647C386.705 56.4381 380.074 44.4806 379.28 43.1456C378.962 43.4372 378.661 43.7474 378.379 44.0747C379.527 46.0981 383.858 57.6828 384.27 68.4948L370.266 68.6451C370.266 68.6451 383.332 72.0216 393.17 71.9013C403.008 71.781 419.321 68.1189 419.321 68.1189L405.536 68.2663Z" fill="#FB8B0D"/>
</g>
<defs>
<clipPath id="clip0_234_20227">
<rect width="772" height="496" fill="white"/>
</clipPath>
</defs>
</svg>
